Patient4_TMGait_0pt6_01_left_47_EMG.mot
version=1
nRows=30
nColumns=33
inDegrees=no
endheader
time	1LAddLong	2LGlutMax	3LGlutMed	4LIliopsoas	5LSemiMemb	6LBicFemLong	7LRecFem	8LVastMed	9LVastLat	10LGasMed	11LTibAnt	12lTibPost	13LPeroneusLong	14LSol	15LExtDigLong	16LFlexDigLong	17RAddLong	18RGlutMax	19RGlutMed	20RIliopsoas	21RSemiMemb	22RBicFemLong	23RRecFem	24RVastMed	25RVastLat	26RGasMed	27RTibAnt	28RTibPost	29RPeroneusLong	30RSol	31RExtDigLong	32RFlexDigLong
57.18	0.020752	0.1593	-0.076904	-0.009918	-0.009613	0.011292	0.016174	0.015259	0.27161	-0.007477	-0.084381	-0.001984	-0.007629	0.13046	0.12283	0.01709	0.004272	-0.19424	-0.24643	0.020599	-0.063477	-0.090485	-0.13062	-0.23651	0.23712	-0.015411	0.24262	-0.007172	-0.35553	-0.10941	-0.005341	-0.019684
57.181	0.006409	0.1532	-0.069733	-0.011292	-0.003967	0.011749	0.014038	0.010223	0.26321	0.021667	-0.22476	0.006866	0.005798	0.17334	0.15976	0.016937	0.006409	-0.027313	-0.20874	0.010071	-0.087891	-0.14114	-0.071106	-0.2272	0.29495	-0.016937	1.0915	-0.000763	-0.28885	-0.17624	-0.006256	-0.013123
57.182	0.005798	0.15869	-0.059662	0.000305	-0.006714	0.027161	-0.004425	0.016632	0.26154	0.016327	-0.10834	0.013885	0.023346	0.20065	0.02594	0.012817	0.008545	0.073242	-0.15671	-0.022125	-0.11368	-0.15289	0.13077	-0.21057	0.57571	-0.01358	1.2482	-0.004578	-0.20401	-0.21454	-0.006866	-0.007477
57.183	0.002136	0.13702	-0.050964	0.022278	-0.010071	0.022736	0.015106	0.016785	0.26138	-0.000458	-0.079498	0.008392	0.097198	0.15381	0.080109	0.014038	0.006866	0.22903	-0.078583	-0.02121	-0.046844	-0.17395	0.25146	-0.076752	0.6395	-0.002594	0.41245	-0.007629	0.060577	-0.17609	-0.00946	-0.006561
57.184	0.005646	0.099792	-0.076599	0.020599	-0.017242	0.015717	-0.011139	0.011139	0.25696	-0.013123	0.042267	0.012054	0.065002	0.097961	0.20752	0.003967	-0.006714	0.4042	-0.10025	0.037689	-0.045929	-0.081177	-0.18265	-0.024567	0.44891	0.011597	-0.9436	-0.003204	0.57602	-0.12848	-0.005646	-0.003052
57.185	0.006714	0.089874	-0.069885	0.00412	-0.007019	0.003967	0.000458	0.013123	0.25665	-0.035095	0.075073	0.00473	0.040741	-0.18555	0.15289	0.002899	-0.002899	0.53406	-0.086975	0.018005	-0.068817	-0.022736	-0.27313	0.083923	-0.23499	0.002136	-1.1418	-0.004425	0.56564	0.020599	-0.005646	-0.002594
57.186	0.00885	0.038605	-0.086365	0.001221	-0.001373	-0.014954	-0.008698	0.013428	0.26321	-0.063171	0.13199	0.006561	0.053406	-0.24689	0.041809	-0.004272	0.013733	0.62286	-0.10223	-0.057373	-0.087738	-0.038452	0.022125	0.14557	-0.32684	-0.014496	-1.0692	-0.002441	-0.22553	0.034027	-0.004578	-0.014343
57.187	0.00885	-0.0383	-0.065918	0.000916	-0.008392	-0.02533	0.006866	0.01236	0.25909	-0.088959	0.017548	0.010529	0.078583	-0.14435	0.10239	0.021057	0.021362	0.62164	-0.1561	-0.02533	-0.084991	-0.04837	0.24246	-0.03067	-0.23621	-0.025482	-0.49149	-0.006866	-0.3064	0.062714	-0.002136	-0.018463
57.188	0.001678	-0.076447	-0.080414	-0.00351	0	-0.015564	0.000305	0.009613	0.25574	-0.068054	-0.10712	0.001678	0.059357	-0.002441	0.23529	-0.000916	0.006714	0.71655	-0.14954	-0.0354	-0.070038	0.003052	0.40237	-0.43503	-0.46417	-0.019836	-0.055237	-0.002136	-0.027618	0.093231	0.002289	-0.008698
57.189	-0.002594	-0.10941	-0.062408	-0.003967	-0.006714	-0.018158	-0.014801	0.010529	0.24872	-0.078888	-0.13992	0.008392	0.039063	-0.046082	-0.72006	0.012054	-0.013123	0.72571	-0.084534	-0.041351	-0.069122	0.027466	0.27344	-0.59891	-0.61569	-0.009766	0.72006	-0.002594	-0.014191	0.041351	-0.004272	-0.002289
57.19	-0.001678	-0.12482	-0.062714	0.000458	-0.016937	-0.030212	-0.010071	0.01358	0.24689	-0.055695	-0.005798	0.012665	0.000305	-0.17395	-0.51254	0.017853	-0.023041	0.83572	0.054626	0.048218	-0.049133	0.000153	-0.13062	-0.57709	-0.68542	-0.003662	1.0913	-0.003662	-0.059509	-0.031128	-0.000916	0.007782
57.191	-0.003204	-0.12116	-0.066681	0.010529	-0.015869	-0.048828	-0.028229	0.011139	0.23361	-0.053406	0.089569	-0.009613	-0.045166	-0.10056	0.21423	0.007324	-0.022888	0.85113	-0.061798	0.074005	-0.059662	-0.031891	-0.19745	-0.33829	-0.42068	-0.002136	1.0707	0.002136	-0.048981	-0.085907	-0.001373	-0.00473
57.192	-0.005951	-0.15213	-0.05661	0.013275	-0.001831	-0.053253	-0.030975	0.004883	0.24216	-0.088043	-0.070343	0.006256	-0.019836	0.008392	0.25925	0.008392	-0.011902	0.87128	-0.17349	0.068512	-0.060883	-0.049896	0.17059	0.19714	-0.31708	-0.006104	0.34531	-0.00473	-0.21286	-0.088501	-0.003967	-0.00473
57.193	0.00351	-0.15213	-0.082397	0.008087	-0.002594	-0.081635	-0.027313	0.011597	0.24155	-0.12268	-0.074158	0.004578	0.012207	0.15335	-0.024567	0.001373	-0.005951	0.86426	-0.30655	0.048981	-0.064087	-0.041656	-0.09552	0.78659	-0.01709	-0.000916	-0.076904	-0.002289	-0.47134	-0.10864	-0.002899	-0.002747
57.194	-0.005951	-0.12985	-0.041809	-0.001526	0.010834	-0.074615	-0.023499	0.005951	0.23514	-0.13229	-0.090637	0.012207	0.072327	0.25787	-0.3096	-0.015106	0.007629	0.83756	-0.19989	0.082855	-0.074768	-0.082092	-0.36972	1.0007	0.10239	0.006409	-0.093384	-0.001984	-0.19409	-0.061188	-0.008545	-0.007629
57.195	0.008545	-0.16296	-0.080261	0.011139	0.009155	-0.079498	-0.033875	0.009308	0.23377	-0.10468	0.13855	0.012512	0.083923	0.13565	-0.31601	-0.012512	0.045319	0.82977	-0.45959	0.073547	-0.09201	-0.11536	0.11581	0.68619	-0.087738	0.002441	-0.40436	-0.007019	0.62485	0.001678	-0.000153	-0.007172
57.196	0.005493	-0.16068	-0.07431	0.016632	0.00824	-0.071564	-0.042419	0.007172	0.2478	-0.091858	0.28931	0.001221	0.1004	-0.032349	-0.33829	0.001221	0.032654	0.77255	0.026093	-0.15106	-0.083618	-0.057526	0.30899	0.13718	-0.27786	0.001831	-0.43747	-0.009003	0.65796	-0.011902	-0.002899	-0.007477
57.197	0.009613	-0.17914	-0.02243	0.012207	-0.015259	-0.043335	-0.021515	0.005035	0.23544	-0.063477	0.13687	0.009308	0.036926	-0.010681	-0.29709	0.004272	0.009918	0.75516	0.20737	-0.23102	-0.068054	-0.061035	0.11993	-0.27542	-0.27374	-0.000916	-0.22018	-0.007782	1.5901	0.12848	-0.002594	-0.012207
57.198	0.005951	-0.18799	-0.030823	0.007782	-0.034332	-0.028076	-0.02655	0.008087	0.224	-0.010986	0.009613	-0.003815	-0.064545	0.019684	-0.089264	0.00061	-0.016785	0.75745	-0.57892	-0.22049	-0.063324	-0.063477	-0.63248	-0.22507	-0.042114	-0.007935	0.06134	-0.004883	0.20248	0.11429	-0.001831	-0.006409
57.199	0.015411	-0.16953	-0.046387	0.009003	-0.011444	-0.02243	-0.023804	0.008698	0.21484	-0.00473	-0.072479	-0.004883	-0.042725	-0.063171	0.18555	0.002289	-0.027466	0.79117	-0.35721	-0.17014	-0.047455	-0.032043	-1.0594	-0.15976	0.10895	-0.013733	0.12711	-0.00351	-1.1482	0.14771	-0.001831	-0.00351
57.2	0.002747	-0.15595	-0.056763	0.015869	-0.037689	-0.049438	-0.014038	0.004425	0.19974	-0.019531	-0.21225	0.005646	0.049591	-0.097656	0.29388	-0.000763	-0.046844	0.77988	0.18692	0.054016	-0.027161	-0.044556	-1.0971	0.21988	0.28915	-0.001068	-0.20096	-0.008392	0.077057	0.17822	-0.003204	-0.005341
57.201	0.015106	-0.18906	-0.053558	0.015869	-0.000305	-0.080414	-0.019226	0.002747	0.19898	0.006866	-0.14465	-0.000305	0.12772	0.012207	0.19775	-0.001526	-0.00885	0.68848	-0.085754	0.28763	-0.053558	-0.080719	-0.42816	0.12405	0.33157	0.006866	-0.43823	-0.00412	-0.32455	0.045319	-0.005035	-0.015717
57.202	0.027466	-0.18295	-0.04715	0.00061	0.048523	-0.09964	-0.022736	0.005188	0.1857	0.001373	0	-0.000763	0.11322	-0.014648	0.10315	0.005493	0.022888	0.67902	-0.25299	0.26215	-0.082245	-0.10346	0.44968	-0.1152	0.46341	0.010529	-0.38818	-0.002441	-0.47455	-0.092163	-0.000916	0.000458
57.203	0.03006	-0.19852	-0.04303	0.004883	0.030365	-0.062866	-0.017242	0.006409	0.17944	-0.050812	0.018158	0.003967	0.10132	-0.14481	0.016479	0.01297	0.016022	0.62424	0.11978	0.21774	-0.068054	-0.058746	0.34088	-0.15182	0.31006	0.001526	-0.11002	-0.005951	0.15137	-0.15305	-0.001831	-0.011139
57.204	0.015717	-0.18829	-0.041351	-0.011902	0.013275	-0.024872	-0.012512	0.006409	0.18021	-0.057068	-0.053253	-0.003815	0.12283	-0.22247	-0.005341	-0.028839	0.011902	0.61798	0.57404	0.17273	-0.065765	-0.04425	0.23132	-0.14587	0.17746	-0.008545	0.005188	-0.011597	0.16144	-0.074615	-0.002441	-0.002136
57.205	0.018005	-0.17929	-0.046997	-0.00351	0.003967	-0.01358	-0.017548	0.003967	0.18036	-0.065002	-0.030518	0.007019	0.11261	-0.1062	0.018768	0.069427	-0.019226	0.59952	1.0367	0.072021	-0.03952	-0.008698	-0.081787	-0.22263	0.081787	-0.011597	0.055237	-0.004425	-0.069122	-0.035095	-0.005188	-0.013123
57.206	0.006561	-0.18616	-0.056458	0.006866	-0.001831	-0.054016	-0.015717	-0.003967	0.18051	-0.046234	0.048676	0.001068	0.10971	0.035248	0.041046	-0.24124	-0.010376	0.55313	0.50797	-0.024109	-0.022888	-0.019684	-0.6076	-0.24735	0.27115	-0.019226	0.23865	-0.003662	0.35568	0.097198	-0.001831	-0.014496
57.207	-0.001068	-0.17334	-0.057526	0.014496	0.004425	-0.051117	-0.011292	0.003662	0.16541	0.072021	0.076447	0.00061	0.061035	-0.027771	0.040741	-0.05661	0	0.52994	0.38345	-0.051422	-0.034027	-0.060577	-0.78262	-0.13412	0.37277	-0.003815	0.17899	-0.004425	0.57007	0.11292	-0.007935	-0.011597
57.208	0.004883	-0.14145	-0.063171	0.012817	0.007477	-0.050201	-0.022278	0.008087	0.16541	0.050964	0.046234	0.00824	0.066833	-0.098114	0.023041	0.15549	0.016632	0.56686	0.19684	-0.030212	-0.041962	-0.084534	-0.37933	-0.037231	0.001984	-0.008545	-0.23468	-0.005646	0.1355	0.017548	-0.004883	-0.00412
57.209	0.00412	-0.11078	-0.051117	0.005646	0.017548	-0.043488	-0.010071	0.006104	0.15595	0.062561	0.03418	0.007172	0.059204	-0.067596	-0.007629	0.065918	0.015106	0.51254	-0.11978	0.009155	-0.038757	-0.065002	-0.11597	-0.14984	-0.45319	-0.001526	-0.16968	-0.00412	-0.021667	-0.082245	-0.001831	-0.00351
